<?xml version="1.0" standalone="no"?>
<!DOCTYPE svg PUBLIC "-//W3C//DTD SVG 20010904//EN"
 "http://www.w3.org/TR/2001/REC-SVG-20010904/DTD/svg10.dtd">
<svg version="1.0" xmlns="http://www.w3.org/2000/svg"
 width="2968.000000pt" height="2968.000000pt" viewBox="0 0 2968.000000 2968.000000"
 preserveAspectRatio="xMidYMid meet">
<metadata>
Created by potrace 1.14, written by Peter Selinger 2001-2017
</metadata>
<g transform="translate(0.000000,2968.000000) scale(0.100000,-0.100000)"
fill="#000000" stroke="none">
<path d="M3869 19116 c-2 -2 -38 -6 -79 -10 -80 -7 -126 -12 -175 -20 -16 -3
-48 -7 -70 -11 -64 -9 -235 -45 -294 -62 -29 -8 -59 -16 -65 -17 -35 -7 -219
-63 -251 -76 -11 -4 -56 -20 -100 -35 -44 -15 -93 -33 -110 -40 -16 -7 -59
-24 -95 -38 -121 -47 -331 -146 -342 -162 -4 -5 -8 -7 -8 -3 0 11 -230 -125
-365 -216 -223 -151 -397 -298 -564 -481 -129 -140 -257 -355 -315 -527 -33
-100 -38 -127 -41 -245 -6 -221 79 -381 273 -516 28 -20 59 -37 67 -37 8 0 15
-4 15 -9 0 -4 21 -16 47 -26 27 -10 64 -25 83 -33 19 -9 40 -17 47 -18 7 -1
40 -9 75 -18 35 -8 86 -18 113 -21 72 -9 107 -15 116 -20 7 -5 4 -63 -5 -93
-3 -9 -8 -34 -12 -56 -3 -21 -8 -48 -10 -60 -2 -11 -7 -37 -10 -56 -2 -19 -7
-46 -9 -60 -7 -37 -17 -110 -30 -225 -12 -107 -21 -265 -25 -443 -3 -121 -4
-124 -27 -133 -14 -5 -28 -7 -31 -5 -4 2 -46 6 -93 10 -47 4 -97 9 -110 11
-27 5 -90 15 -133 21 -16 2 -43 8 -61 14 -18 6 -42 13 -54 15 -104 20 -292
105 -414 187 -79 53 -206 180 -252 251 -39 61 -100 194 -109 237 -3 14 -7 36
-10 50 -21 96 -26 151 -22 265 3 81 12 160 24 208 19 75 19 78 1 88 -16 8 -24
-1 -62 -83 -39 -82 -94 -226 -102 -268 -2 -8 -4 -16 -5 -17 -2 -2 -3 -6 -4
-10 -16 -64 -20 -82 -23 -103 -1 -14 -6 -47 -10 -75 -8 -59 -9 -225 -1 -275
26 -159 95 -316 193 -440 22 -27 174 -179 196 -195 8 -6 39 -30 70 -53 31 -23
61 -42 67 -42 7 0 12 -4 12 -8 0 -5 19 -17 43 -28 23 -10 44 -21 47 -24 17
-17 249 -111 313 -126 4 -1 8 -2 10 -4 1 -1 10 -3 19 -5 9 -2 32 -8 50 -14 48
-16 236 -52 288 -56 25 -2 45 -5 45 -6 0 -1 18 -3 40 -5 122 -10 127 -13 132
-76 1 -24 5 -59 8 -78 2 -19 7 -53 10 -75 3 -22 7 -60 9 -85 3 -25 12 -86 20
-135 9 -49 14 -91 11 -93 -2 -3 0 -12 5 -22 5 -9 12 -36 15 -61 9 -59 12 -78
20 -114 4 -16 9 -43 12 -60 2 -16 7 -37 10 -45 8 -20 8 -18 17 -75 4 -27 11
-54 14 -60 3 -5 7 -16 8 -25 3 -16 11 -51 14 -60 1 -3 3 -9 4 -15 5 -26 18
-72 26 -90 9 -19 13 -55 11 -83 -1 -10 -34 -11 -153 -7 -84 3 -166 7 -183 9
-16 2 -64 7 -105 11 -41 4 -84 9 -95 12 -11 2 -31 6 -45 7 -14 2 -38 6 -55 9
-16 4 -44 9 -61 12 -43 7 -213 51 -249 65 -17 6 -30 11 -30 10 0 -2 -36 11
-130 48 -418 163 -721 442 -810 747 -10 36 -21 55 -31 55 -13 0 -15 -15 -13
-91 2 -84 12 -163 26 -199 3 -8 8 -23 9 -33 17 -86 119 -282 206 -394 81 -105
321 -323 356 -323 6 0 12 -4 14 -8 9 -21 259 -154 369 -196 35 -13 78 -30 94
-37 34 -14 28 -12 120 -39 108 -33 291 -75 365 -85 25 -3 52 -8 61 -11 9 -2
40 -7 69 -9 30 -3 61 -7 69 -9 22 -6 167 -17 274 -21 101 -4 120 -14 139 -77
6 -21 16 -38 21 -38 6 0 7 -3 4 -6 -3 -4 -1 -16 5 -28 7 -11 13 -23 14 -26 6
-24 140 -296 186 -377 60 -106 95 -165 152 -253 61 -96 200 -294 223 -318 31
-32 16 -42 -64 -43 -199 -2 -333 5 -530 27 -32 4 -69 8 -83 9 -14 2 -25 4 -25
4 0 1 -21 4 -46 6 -109 10 -386 74 -564 132 -202 65 -444 173 -554 247 -29 20
-57 36 -62 36 -5 0 -9 5 -9 10 0 6 -6 10 -14 10 -8 0 -16 3 -18 8 -5 12 -86
72 -98 72 -69 0 96 -202 290 -356 42 -32 83 -63 91 -69 9 -5 41 -26 70 -46 30
-19 70 -44 89 -55 19 -10 37 -21 40 -24 3 -3 19 -12 35 -20 17 -8 46 -24 65
-36 19 -12 37 -21 40 -22 3 0 32 -13 65 -27 92 -41 114 -50 193 -80 39 -15 79
-28 87 -29 8 -1 18 -5 21 -9 4 -4 17 -7 29 -7 12 0 25 -3 29 -7 4 -5 12 -9 17
-9 5 -1 10 -2 12 -4 1 -1 9 -3 17 -5 8 -1 51 -12 95 -23 88 -23 137 -33 175
-38 14 -1 25 -3 25 -4 0 -2 23 -7 70 -14 23 -4 52 -8 65 -11 57 -11 197 -24
306 -29 34 -2 66 -6 72 -10 6 -3 13 -2 17 4 4 6 11 7 18 3 6 -3 97 -7 203 -7
216 -1 183 9 292 -91 24 -22 52 -48 63 -57 115 -105 443 -342 559 -404 19 -11
37 -21 40 -24 3 -3 37 -21 75 -40 39 -19 72 -38 73 -42 2 -5 9 -8 16 -8 7 0
39 -13 72 -28 32 -16 85 -39 117 -52 93 -36 70 -43 -191 -54 -40 -2 -75 -5
-77 -7 -5 -5 -360 -1 -470 5 -155 9 -253 18 -350 31 -95 13 -193 27 -210 30
-11 2 -40 6 -65 10 -25 3 -51 8 -59 11 -45 15 -81 15 -87 -1 -4 -9 -3 -20 2
-25 15 -15 322 -120 424 -145 70 -17 230 -55 250 -59 14 -3 34 -7 45 -9 11 -3
56 -10 100 -17 44 -7 87 -13 95 -15 9 -2 40 -6 70 -9 30 -4 73 -9 95 -12 199
-25 711 -25 900 0 17 2 57 7 90 10 33 4 71 9 85 11 14 3 41 7 60 10 19 3 46 7
60 10 14 3 41 7 60 10 60 10 293 64 345 80 27 9 59 17 70 19 11 3 70 21 130
41 61 20 115 38 121 39 7 1 19 8 28 15 9 7 16 11 16 8 0 -19 485 205 598 277
23 14 46 26 51 26 5 0 11 3 13 8 2 4 19 16 38 26 31 17 249 158 275 178 6 4
62 47 125 95 129 98 134 102 158 124 9 9 51 45 92 80 72 61 275 262 351 346
20 23 74 87 120 144 46 57 87 106 92 107 4 2 7 9 7 16 0 6 8 19 18 27 19 18
116 160 175 257 38 63 42 92 13 92 -17 0 -35 -18 -116 -110 -102 -117 -291
-300 -434 -421 -15 -13 -42 -36 -60 -51 -30 -27 -64 -44 -72 -36 -4 4 -16 74
-17 96 0 6 -3 12 -6 12 -3 0 -6 10 -7 23 0 12 -4 38 -8 57 -4 19 -9 44 -11 55
-2 11 -11 52 -20 90 -9 39 -18 79 -20 90 -12 54 -48 195 -61 235 -7 25 -16 56
-18 70 -3 14 -13 50 -22 80 -52 177 -54 166 36 235 32 25 65 51 72 58 7 6 40
34 73 62 122 101 393 366 475 464 25 29 59 68 75 87 38 43 39 43 114 144 35
47 68 89 73 95 12 14 29 -7 34 -46 3 -19 10 -61 16 -94 11 -64 13 -81 22 -160
3 -27 8 -66 11 -85 13 -96 28 -311 26 -367 -2 -32 -2 -40 2 -70 2 -18 -1 -33
-6 -33 -4 0 -5 -5 -1 -12 9 -15 10 -98 1 -121 -4 -10 -2 -17 3 -17 6 0 9 -6 8
-12 -2 -7 7 -14 19 -16 31 -5 35 7 69 171 1 4 2 8 3 10 2 1 4 18 6 37 2 19 6
53 10 75 17 110 28 312 29 520 1 197 -7 318 -29 455 -11 67 -12 111 -3 116 4
3 6 9 3 14 -2 4 3 18 13 31 18 23 126 260 137 299 0 3 20 61 42 130 23 69 44
139 46 155 3 17 8 37 11 45 6 16 9 34 26 135 5 33 12 71 15 84 29 147 16 549
-21 651 -3 8 -8 28 -11 43 -6 40 -32 97 -43 97 -17 0 -24 -25 -26 -100 -4
-122 -15 -226 -40 -375 -19 -115 -79 -314 -130 -432 -8 -17 -14 -38 -14 -47 0
-9 -4 -16 -8 -16 -5 0 -9 -6 -9 -12 0 -7 -24 -61 -53 -121 -43 -87 -55 -105
-66 -96 -8 6 -14 18 -14 25 0 8 -4 22 -9 32 -5 9 -14 35 -20 57 -7 22 -16 49
-21 60 -5 11 -25 61 -44 110 -43 111 -66 165 -122 282 -24 50 -44 96 -44 102
0 6 -3 11 -8 11 -4 0 -13 14 -21 31 -17 39 -152 282 -160 289 -13 11 -29 48
-23 54 3 4 7 16 9 27 2 11 17 45 33 75 17 30 28 54 24 54 -4 0 -2 6 4 13 22
26 123 304 137 377 10 53 14 72 19 88 3 9 8 33 11 52 3 19 7 46 10 60 2 14 7
49 10 79 3 30 9 59 12 64 3 6 1 7 -5 3 -9 -5 -10 0 -4 16 8 22 7 167 -1 253
-4 33 -21 132 -31 170 -29 116 -111 287 -187 387 -58 78 -166 188 -184 188
-23 0 -24 -29 -2 -77 11 -26 21 -50 22 -53 0 -3 3 -9 6 -15 4 -5 10 -23 14
-40 4 -16 9 -37 11 -45 13 -54 23 -101 29 -140 10 -63 12 -280 4 -280 -4 0 -4
-13 1 -30 5 -16 5 -30 1 -30 -4 0 -7 -10 -6 -22 2 -21 -27 -185 -35 -208 -2
-3 -2 -8 -2 -11 2 -11 -74 -231 -97 -284 -37 -84 -104 -216 -112 -221 -4 -2
-25 17 -46 43 -55 68 -85 104 -110 130 -12 12 -28 32 -36 43 -17 24 -201 222
-264 284 -104 103 -204 196 -268 251 -38 33 -76 66 -83 72 -7 7 -21 18 -31 25
-39 28 -40 48 -10 118 81 190 129 402 131 571 1 112 -7 205 -22 244 -5 14 -7
25 -5 25 2 0 0 12 -6 28 -6 15 -12 35 -14 44 -6 28 -57 141 -72 159 -7 8 -13
19 -13 23 0 13 -106 151 -152 196 -65 66 -136 128 -169 147 -16 10 -29 21 -29
25 0 4 -6 8 -13 8 -7 0 -22 8 -33 19 -21 19 -204 110 -264 131 -19 7 -44 16
-55 20 -48 21 -179 50 -196 45 -29 -9 -16 -20 79 -68 115 -57 181 -106 270
-195 121 -123 192 -247 228 -397 1 -5 7 -29 12 -52 26 -111 3 -365 -43 -493
-9 -25 -18 -49 -19 -55 -13 -50 -20 -65 -28 -65 -5 0 -7 -3 -5 -7 8 -14 -38
-98 -55 -101 -10 -2 -41 12 -70 31 -44 29 -137 83 -278 163 -119 68 -506 244
-535 244 -8 0 -15 5 -15 10 0 6 -7 10 -15 10 -26 0 -27 24 -4 76 67 151 94
354 65 491 -14 70 -61 185 -78 191 -4 2 -8 8 -8 13 0 9 -19 34 -60 78 -36 37
-130 114 -130 105 0 -4 -8 0 -18 9 -15 13 -105 58 -177 87 -55 22 -135 41
-275 67 -30 5 -476 13 -481 9z m191 -151 c14 -3 43 -8 64 -11 22 -3 45 -8 50
-12 6 -3 17 -7 26 -8 63 -6 218 -80 284 -134 143 -119 207 -296 166 -460 -16
-64 -14 -60 -33 -115 -30 -87 -35 -89 -109 -70 -76 20 -97 25 -123 30 -11 2
-31 6 -45 9 -96 22 -225 44 -232 40 -4 -3 -8 -1 -8 3 0 5 -12 9 -27 8 -16 0
-44 2 -63 6 -33 7 -125 18 -200 24 -19 2 -35 4 -35 5 0 1 -93 5 -250 10 -99 4
-105 3 -105 -20 0 -14 7 -20 23 -21 12 0 31 -2 42 -5 11 -2 36 -6 55 -9 19 -3
44 -7 55 -9 11 -2 45 -7 75 -12 30 -4 57 -8 60 -9 3 -1 19 -4 35 -8 17 -4 41
-9 55 -12 45 -8 102 -21 160 -35 19 -5 49 -12 65 -15 17 -4 37 -9 45 -12 8 -3
22 -7 30 -8 41 -7 343 -106 357 -117 15 -12 0 -36 -85 -138 -93 -112 -363
-350 -397 -350 -12 0 -148 91 -165 111 -6 6 -196 139 -221 154 -9 6 -40 24
-68 40 -28 17 -51 33 -51 38 0 4 -4 7 -9 7 -5 0 -53 25 -107 56 -137 78 -160
86 -175 68 -14 -16 -14 -15 86 -99 33 -28 72 -61 86 -75 14 -14 43 -40 65 -58
47 -39 185 -168 295 -273 43 -42 79 -82 79 -90 0 -8 -40 -37 -88 -66 -97 -57
-369 -190 -447 -218 -27 -10 -54 -22 -60 -26 -5 -4 -37 -15 -69 -24 -57 -17
-60 -17 -72 0 -8 10 -11 21 -9 26 3 4 1 9 -4 11 -5 1 -12 17 -14 33 -3 17 -13
57 -22 90 -9 33 -19 69 -21 80 -11 45 -13 50 -14 50 -1 0 -3 7 -5 15 -2 8 -6
25 -9 38 -3 12 -9 32 -12 45 -3 12 -7 29 -9 37 -2 8 -4 15 -5 15 -2 0 -7 24
-15 69 -4 22 -10 49 -15 60 -4 12 -7 23 -7 26 1 11 -25 117 -35 143 -11 29
-16 31 -38 17 -12 -7 -14 -34 -12 -137 1 -70 4 -138 6 -149 3 -12 7 -63 11
-112 3 -50 8 -100 10 -111 2 -11 6 -46 10 -78 3 -32 8 -71 11 -88 12 -75 17
-124 15 -147 -1 -15 -59 -43 -69 -33 -3 3 -11 0 -19 -6 -7 -6 -13 -8 -13 -5 0
4 -8 2 -18 -3 -10 -5 -38 -12 -62 -16 -25 -4 -47 -8 -50 -10 -3 -2 -26 -6 -50
-10 -25 -3 -52 -8 -60 -10 -14 -4 -39 -7 -135 -20 -22 -3 -74 -8 -115 -11 -41
-2 -92 -6 -112 -8 -21 -2 -38 0 -39 3 0 3 -2 15 -4 26 -2 11 2 41 10 68 8 26
11 47 8 47 -3 0 -1 6 5 13 6 6 10 14 10 17 0 3 5 25 12 50 7 25 13 50 14 57 1
7 5 16 9 19 4 4 7 18 7 31 0 13 4 23 8 23 4 0 9 11 10 24 1 13 7 37 13 52 7
16 13 31 14 34 5 21 18 58 25 75 12 29 35 89 36 95 0 3 6 18 12 33 7 16 12 30
12 33 0 2 9 23 19 47 51 110 81 180 81 187 0 4 -9 10 -19 13 -16 4 -31 -13
-77 -87 -31 -50 -64 -102 -73 -116 -30 -47 -181 -343 -181 -355 0 -2 -11 -28
-24 -57 -22 -50 -95 -232 -101 -253 -20 -69 -35 -75 -135 -50 -3 0 -23 5 -45
10 -22 5 -42 9 -45 10 -56 13 -177 70 -219 102 -54 41 -113 110 -137 160 -14
28 -25 53 -23 55 1 2 -4 14 -11 28 -16 31 -22 183 -8 242 5 23 12 54 14 68 8
38 84 207 100 221 8 6 14 16 14 21 0 8 30 54 82 123 71 94 269 287 380 368 13
10 50 37 83 62 33 25 66 45 73 45 6 0 12 4 12 10 0 5 17 19 37 30 21 11 56 32
78 45 22 14 47 28 55 32 8 3 22 11 30 18 26 21 190 105 204 105 8 0 16 4 18 9
7 18 405 179 486 196 9 2 37 11 61 19 24 9 46 14 49 11 3 -3 10 -1 16 4 10 9
216 55 295 67 20 3 47 7 61 10 14 2 61 7 105 10 44 4 81 8 83 9 6 5 347 -4
372 -10z m908 -1165 c17 -11 32 -16 32 -12 0 4 4 2 8 -3 4 -6 48 -30 97 -54
50 -24 92 -48 93 -53 2 -4 10 -8 17 -8 14 0 120 -61 222 -126 28 -19 56 -34
62 -34 6 0 11 -4 11 -10 0 -5 4 -10 10 -10 8 0 187 -116 200 -130 3 -3 24 -18
48 -34 23 -16 42 -35 42 -42 0 -15 -123 -179 -190 -254 -22 -25 -40 -49 -40
-53 0 -5 -4 -5 -10 -2 -5 3 -10 1 -10 -5 0 -32 -422 -418 -504 -462 -21 -11
-22 -10 -217 203 -126 138 -327 336 -465 460 -56 50 -58 61 -17 95 20 16 41
34 47 39 6 6 34 28 61 50 28 22 59 49 71 60 12 11 41 38 65 61 58 53 174 183
222 248 81 108 87 111 145 76z m-798 -770 c19 -21 49 -53 65 -71 17 -19 62
-70 101 -114 39 -44 84 -96 100 -115 16 -18 39 -44 51 -57 12 -12 28 -32 36
-43 8 -11 29 -37 48 -58 19 -20 46 -53 60 -72 15 -19 35 -44 45 -55 50 -54 94
-115 94 -130 0 -18 -38 -54 -57 -55 -7 0 -13 -4 -13 -10 0 -5 -7 -10 -15 -10
-8 0 -15 -4 -15 -9 0 -5 -10 -13 -22 -17 -13 -4 -25 -10 -28 -14 -5 -6 -90
-58 -180 -108 -25 -14 -75 -42 -113 -63 -72 -41 -373 -190 -391 -194 -6 -1
-33 -13 -61 -26 -27 -13 -52 -24 -55 -24 -3 -1 -16 -7 -30 -13 -54 -23 -175
-73 -175 -72 0 1 -13 -4 -29 -10 -45 -17 -59 -9 -78 45 -10 28 -22 59 -27 70
-5 11 -22 56 -37 100 -15 44 -32 91 -37 105 -6 14 -11 30 -13 35 -2 6 -47 138
-99 294 -65 189 -95 291 -91 307 4 15 16 26 34 30 15 4 33 11 40 17 6 5 12 7
12 4 0 -3 33 8 73 24 39 16 73 30 74 30 2 0 20 7 40 15 21 9 51 21 68 27 122
49 525 263 541 288 8 13 44 -9 84 -51z m2106 -112 c44 -34 370 -363 449 -453
143 -164 299 -360 336 -419 21 -35 18 -44 -45 -126 -165 -217 -506 -567 -684
-705 -7 -5 -19 -16 -28 -24 -26 -23 -89 -75 -124 -101 -18 -14 -39 -31 -47
-39 -30 -30 -56 -3 -158 162 -55 89 -101 168 -103 175 -2 6 -8 12 -13 12 -5 0
-9 7 -9 15 0 8 -4 15 -8 15 -5 0 -15 12 -23 28 -8 15 -16 29 -19 32 -3 3 -22
31 -43 62 -21 31 -44 64 -53 72 -8 9 -13 16 -9 16 5 0 -39 64 -55 80 -3 3 -21
28 -39 55 -19 28 -40 53 -45 57 -6 4 -7 8 -3 8 4 0 -6 15 -22 33 -17 17 -31
38 -31 45 0 6 -4 12 -8 12 -14 0 -87 113 -84 129 4 19 47 61 62 61 5 0 10 4
10 8 0 5 15 20 33 33 121 87 436 397 542 533 17 21 40 50 53 65 12 14 39 51
59 81 21 30 44 61 50 68 7 7 13 18 13 23 0 15 15 11 46 -13z m-3300 -348 c1
-8 14 -64 29 -125 15 -60 28 -119 29 -130 2 -11 6 -27 9 -35 3 -8 10 -37 17
-65 7 -27 14 -57 17 -65 4 -8 8 -23 10 -33 2 -10 19 -73 39 -140 20 -67 39
-135 44 -152 4 -16 22 -76 40 -133 31 -99 31 -104 13 -117 -10 -7 -31 -17 -48
-21 -16 -3 -36 -8 -42 -10 -7 -2 -21 -6 -30 -8 -10 -3 -18 -5 -18 -6 0 -1 -9
-3 -19 -5 -11 -2 -54 -13 -95 -24 -71 -19 -115 -29 -151 -35 -8 -2 -40 -8 -70
-14 -64 -14 -95 -20 -132 -27 -16 -3 -43 -8 -60 -11 -18 -3 -46 -7 -63 -10
-28 -3 -72 -10 -136 -20 -30 -4 -129 -13 -214 -19 -33 -2 -79 -6 -102 -9 -69
-8 -72 1 -67 237 2 111 6 231 8 267 8 111 15 193 20 235 3 22 8 68 11 103 4
35 8 73 10 84 3 11 7 46 11 77 8 65 18 96 36 107 7 4 44 9 83 10 96 3 247 14
265 19 8 2 42 7 75 10 33 3 67 7 75 9 8 1 35 6 60 10 66 11 85 14 85 16 0 1
14 4 30 6 17 2 66 12 110 23 91 22 117 22 121 1z m2249 -844 c46 -66 87 -125
92 -131 5 -5 42 -59 82 -120 41 -60 78 -111 82 -113 5 -2 9 -9 9 -15 0 -7 16
-35 36 -62 20 -28 39 -57 42 -65 4 -8 33 -54 65 -102 31 -48 57 -92 57 -97 0
-6 4 -11 9 -11 5 0 14 -13 21 -30 7 -16 16 -30 21 -30 5 0 9 -5 9 -11 0 -6 9
-24 20 -39 11 -16 23 -41 26 -57 5 -27 0 -32 -74 -80 -44 -28 -112 -71 -151
-95 -40 -23 -88 -53 -109 -66 -20 -12 -44 -25 -52 -29 -8 -4 -31 -16 -50 -28
-92 -57 -427 -228 -585 -300 -33 -15 -84 -38 -113 -51 -29 -13 -55 -24 -57
-24 -3 0 -24 -9 -48 -19 -65 -30 -270 -109 -287 -111 -35 -5 -43 4 -85 95 -25
53 -45 100 -45 104 0 5 -7 14 -15 21 -8 7 -15 18 -15 26 0 7 -22 57 -48 111
-27 54 -49 101 -50 106 -2 9 -41 97 -52 119 -5 9 -46 103 -91 210 -44 106 -90
213 -101 237 -11 24 -22 58 -25 76 -5 33 -3 36 47 51 3 0 21 7 40 15 19 7 38
12 43 11 4 -1 7 3 7 8 0 6 7 10 16 10 9 0 51 15 94 34 43 19 81 31 84 28 3 -3
6 0 6 6 0 7 8 12 18 12 10 0 22 3 26 8 4 4 11 7 14 8 4 0 34 13 67 28 33 15
80 37 105 48 138 61 460 232 575 305 11 7 36 22 55 33 46 27 66 39 119 76 26
19 52 29 63 26 10 -2 57 -59 103 -126z m2191 -223 c11 -21 35 -65 54 -98 19
-33 35 -66 36 -73 2 -8 10 -22 18 -31 9 -10 16 -20 16 -23 0 -3 27 -61 59
-129 65 -138 136 -297 147 -334 6 -19 87 -240 95 -260 22 -53 26 -90 10 -115
-9 -14 -18 -27 -21 -30 -4 -3 -20 -25 -38 -50 -17 -25 -42 -58 -56 -75 -14
-16 -38 -45 -53 -64 -15 -19 -48 -57 -73 -85 -24 -28 -53 -62 -65 -75 -81 -94
-377 -374 -475 -449 -19 -15 -37 -30 -40 -34 -14 -19 -165 -128 -173 -125 -5
1 -40 79 -77 172 -67 170 -76 191 -113 275 -11 25 -35 81 -54 125 -20 44 -80
171 -134 282 -55 111 -99 209 -99 217 0 8 33 41 73 73 39 32 74 60 77 63 3 3
27 24 55 45 27 22 55 45 61 50 184 160 391 368 509 510 28 33 53 62 56 65 3 3
34 43 70 90 35 47 67 87 71 88 5 2 8 10 8 18 0 29 36 14 56 -23z m-3986 -465
c11 -12 20 -27 20 -34 0 -7 11 -39 24 -71 13 -32 41 -101 61 -153 20 -52 41
-103 46 -112 5 -10 9 -25 9 -33 0 -8 5 -15 10 -15 6 0 9 -3 8 -7 -2 -10 -3 -7
102 -248 87 -199 149 -336 176 -387 21 -39 18 -66 -8 -74 -13 -4 -23 -6 -23
-5 0 1 -27 -8 -60 -19 -51 -18 -183 -54 -235 -65 -8 -2 -16 -4 -17 -5 -4 -3
-4 -3 -78 -20 -33 -7 -64 -15 -70 -16 -36 -10 -63 -16 -82 -20 -52 -9 -70 -13
-108 -23 -22 -5 -40 -10 -40 -10 0 1 -66 -10 -100 -17 -16 -3 -43 -7 -60 -10
-16 -2 -55 -8 -85 -14 -158 -27 -307 -45 -544 -65 -43 -4 -73 -2 -81 5 -12 10
-32 66 -85 235 -25 81 -63 223 -65 245 -2 14 -4 26 -5 28 -3 2 -1 -7 -28 112
-12 52 -24 107 -27 123 -3 15 -7 37 -10 50 -2 12 -7 38 -9 57 -3 19 -12 73
-20 120 -8 47 -17 108 -21 135 -3 28 -8 61 -10 75 -7 43 5 50 106 55 173 8
347 22 390 30 9 2 40 6 70 10 30 3 61 8 69 10 8 2 39 7 69 10 30 3 57 8 60 10
4 2 25 6 47 9 51 8 81 14 102 20 9 3 33 8 52 11 19 3 53 11 75 17 22 5 51 12
65 14 14 3 33 7 42 10 9 3 25 7 35 9 10 2 50 13 88 24 93 26 120 26 145 -1z
m2705 -776 c-2 -3 4 -17 14 -31 28 -40 350 -692 356 -721 2 -8 45 -103 55
-122 6 -10 10 -24 10 -32 0 -8 4 -16 9 -18 9 -3 14 -35 12 -70 -1 -10 -20 -30
-43 -45 -24 -15 -45 -30 -48 -33 -3 -3 -59 -39 -125 -79 -66 -41 -136 -84
-155 -96 -63 -40 -459 -255 -480 -260 -3 -1 -52 -24 -110 -52 -167 -80 -295
-136 -460 -202 -84 -34 -89 -32 -125 36 -11 21 -22 40 -25 43 -14 14 -50 70
-50 78 0 5 -7 15 -15 22 -9 7 -13 15 -11 17 2 3 -15 35 -40 73 -24 38 -48 80
-54 94 -5 14 -14 26 -20 26 -5 0 -10 7 -10 16 0 8 -11 32 -25 52 -14 20 -25
39 -25 43 0 3 -22 45 -50 92 -27 48 -74 133 -103 189 -87 164 -92 173 -97 178
-6 5 -30 58 -30 65 0 5 105 53 130 60 38 10 236 89 330 132 30 14 73 32 95 41
22 9 60 26 84 39 24 13 50 23 57 23 8 0 14 5 14 10 0 6 5 10 11 10 15 0 183
83 187 93 2 4 11 7 20 7 10 0 28 9 42 20 14 11 28 20 32 20 13 0 213 113 216
122 2 4 8 8 12 8 11 0 202 115 315 188 l50 33 27 -32 c15 -18 26 -35 23 -37z
m-1937 -898 c18 -31 32 -59 32 -64 0 -4 7 -13 15 -20 8 -7 15 -21 15 -31 0
-11 4 -19 10 -19 5 0 12 -11 16 -25 3 -14 10 -25 15 -25 5 0 9 -4 9 -10 0 -13
141 -253 155 -262 5 -4 6 -8 1 -8 -5 0 -2 -7 5 -16 7 -9 18 -25 24 -35 18 -32
86 -139 181 -286 118 -181 118 -181 104 -198 -6 -8 -42 -23 -78 -35 -37 -12
-76 -25 -87 -30 -27 -12 -255 -79 -280 -83 -11 -1 -24 -5 -30 -9 -5 -3 -41
-13 -80 -22 -38 -9 -92 -23 -120 -31 -27 -8 -65 -17 -84 -20 -19 -3 -37 -7
-40 -9 -5 -4 -56 -14 -106 -21 -11 -2 -20 -4 -20 -5 0 -1 -9 -3 -20 -5 -24 -5
-84 -17 -105 -22 -8 -2 -31 -5 -50 -8 -19 -2 -46 -7 -60 -10 -14 -3 -38 -7
-55 -9 -16 -3 -52 -9 -80 -15 -27 -5 -53 -7 -57 -5 -5 3 -13 2 -20 -2 -6 -4
-32 -9 -57 -11 -25 -2 -59 -6 -76 -9 -42 -7 -87 -7 -110 1 -17 5 -70 70 -110
133 -5 9 -14 21 -20 28 -35 41 -45 55 -45 63 0 4 -9 16 -20 26 -11 10 -20 22
-20 27 0 5 -9 18 -20 30 -11 12 -20 28 -20 35 0 7 -4 13 -10 13 -5 0 -10 6
-10 14 0 8 -4 16 -8 18 -8 3 -103 153 -138 218 -11 19 -29 49 -41 67 -37 57
-226 444 -219 450 3 3 32 8 63 10 163 10 270 19 338 28 17 2 57 7 90 10 59 6
108 13 147 20 11 3 46 7 77 11 31 3 59 8 62 10 4 2 24 6 45 9 22 3 50 8 64 11
14 2 36 6 50 9 14 3 48 9 75 15 28 6 59 12 70 14 138 28 435 103 520 132 69
23 78 19 113 -42z m2612 -594 c9 -25 35 -101 59 -170 24 -69 47 -134 51 -145
8 -18 60 -176 67 -200 1 -5 4 -18 6 -27 2 -10 6 -21 10 -24 4 -4 7 -17 7 -29
0 -12 3 -25 7 -29 4 -3 8 -12 9 -19 1 -7 16 -60 33 -120 16 -59 28 -114 25
-121 -3 -7 -37 -35 -77 -62 -40 -27 -74 -51 -77 -54 -12 -13 -280 -182 -370
-232 -25 -14 -61 -34 -80 -45 -69 -39 -260 -134 -266 -133 -4 1 -10 -2 -13 -7
-10 -14 -185 -93 -207 -93 -34 0 -79 49 -259 280 -50 63 -98 124 -107 134 -10
11 -18 23 -18 27 0 4 -6 14 -13 21 -7 7 -55 72 -106 143 -51 72 -98 137 -104
145 -7 8 -17 27 -24 42 l-12 26 102 43 c56 23 130 55 165 70 35 16 65 29 67
29 2 0 69 32 150 70 81 39 150 70 155 70 5 0 10 3 12 8 2 4 42 27 90 52 48 25
100 52 115 60 107 59 182 103 276 162 60 37 113 68 117 68 5 0 16 7 25 17 34
33 131 92 150 90 13 -1 24 -16 35 -47z m-1700 -821 c15 -21 68 -89 93 -119 6
-8 30 -37 51 -65 22 -27 45 -55 51 -61 5 -6 26 -30 45 -53 19 -23 44 -52 55
-65 105 -119 176 -196 268 -288 59 -60 107 -115 107 -123 0 -7 -8 -15 -17 -18
-10 -3 -63 -21 -118 -41 -140 -52 -326 -111 -410 -131 -5 -1 -17 -5 -25 -8
-15 -5 -125 -34 -165 -42 -11 -3 -40 -9 -65 -15 -44 -9 -63 -14 -125 -26 -16
-3 -37 -8 -45 -11 -8 -4 -20 -5 -26 -4 -6 0 -40 -5 -76 -12 -73 -16 -58 -20
-245 69 -51 24 -97 44 -103 44 -5 0 -10 4 -10 9 0 5 -12 14 -27 20 -64 24
-269 154 -413 261 -129 97 -221 174 -377 318 -31 28 -21 42 33 48 22 2 55 6
74 9 19 2 51 7 70 9 105 14 130 17 151 21 55 11 86 17 115 19 16 2 39 6 50 9
10 3 37 8 59 12 22 3 67 12 101 20 34 8 73 16 85 19 13 2 56 12 94 21 64 15
103 24 130 29 6 1 16 5 23 9 6 5 16 6 21 2 5 -3 12 -1 15 4 4 5 25 12 49 16
23 4 47 10 52 13 6 4 17 8 27 9 26 4 311 92 327 101 8 5 31 9 50 10 27 2 40
-3 51 -19z"/>
<path d="M10717 17483 c-3 -5 -27 -10 -53 -12 -26 -1 -52 -5 -58 -8 -5 -3 -23
-7 -40 -9 -37 -3 -200 -56 -204 -66 -2 -5 -9 -8 -16 -8 -18 0 -66 -24 -66 -32
0 -5 -9 -8 -20 -8 -11 0 -20 -4 -20 -9 0 -5 -9 -12 -20 -16 -29 -9 -158 -111
-214 -169 -74 -78 -155 -191 -197 -275 -40 -82 -89 -217 -95 -266 -2 -16 -7
-41 -11 -55 -4 -14 -9 -506 -10 -1095 -3 -1161 -3 -1151 53 -1309 13 -39 26
-75 28 -81 31 -94 148 -268 247 -365 52 -52 208 -170 224 -170 3 0 24 -12 48
-27 23 -14 42 -25 42 -24 0 2 17 -4 38 -13 56 -23 163 -55 206 -62 20 -2 52
-7 71 -11 19 -3 730 -6 1580 -7 l1545 -1 -2 66 c-1 70 -32 188 -66 254 -46 92
-96 154 -207 256 -28 26 -130 83 -190 106 -120 47 -109 47 -1380 48 -1121 2
-1208 3 -1254 20 -87 30 -142 72 -196 150 -61 89 -63 100 -64 558 -1 365 1
417 14 418 8 0 472 2 1030 3 l1015 2 87 31 c121 42 190 85 279 174 90 89 161
209 184 309 18 79 21 103 21 154 l-1 60 -1310 0 c-720 0 -1312 3 -1315 7 -7
10 -4 427 3 456 3 12 11 31 17 42 6 12 8 21 5 21 -2 0 14 28 38 61 48 70 97
109 180 143 l57 23 1223 0 c672 0 1248 4 1280 7 76 9 242 69 267 97 3 3 23 18
45 35 22 16 53 44 70 63 16 19 35 39 40 45 37 38 104 179 119 248 5 23 18 129
18 148 0 3 0 24 -1 47 l-1 41 -51 4 c-28 1 -53 0 -56 -5 -2 -4 -9 -5 -14 -2
-8 6 -121 9 -144 5 -5 -1 -14 -2 -19 -1 -13 3 -158 3 -171 0 -5 -1 -14 -1 -18
0 -13 2 -210 3 -222 0 -5 -1 -14 -1 -18 0 -13 2 -210 3 -222 0 -5 -1 -14 -1
-18 0 -13 2 -210 3 -222 0 -5 -1 -14 -1 -18 0 -13 2 -210 3 -222 0 -5 -1 -14
-1 -18 0 -12 2 -260 2 -272 0 -5 -1 -14 -1 -19 0 -13 3 -129 3 -141 1 -5 -1
-14 -2 -19 -1 -13 3 -129 3 -141 1 -5 -1 -14 -2 -19 -1 -13 3 -129 3 -141 1
-5 -1 -14 -2 -19 -1 -13 3 -158 3 -171 0 -5 -1 -14 -1 -18 0 -13 2 -210 3
-222 0 -5 -1 -14 -1 -18 0 -22 4 -218 3 -222 -1 -3 -2 -24 -2 -47 1 -24 4 -64
4 -90 0 -26 -3 -52 -1 -57 4 -5 5 -11 5 -14 0z"/>
<path d="M24476 17483 c-3 -3 -20 -6 -38 -8 -232 -19 -445 -165 -552 -377 -42
-84 -52 -110 -60 -158 -2 -8 -7 -33 -11 -55 -13 -60 -12 -3494 0 -3499 6 -2
42 -2 80 -1 314 13 584 252 634 560 3 22 6 825 6 1784 l0 1745 -27 7 c-15 4
-29 5 -32 2z"/>
<path d="M14777 17474 c-1 -1 -22 -4 -47 -7 -40 -5 -76 -12 -90 -17 -3 -1 -8
-2 -12 -1 -3 0 -44 -18 -90 -40 -82 -40 -151 -89 -196 -139 -13 -14 -32 -35
-43 -47 -76 -84 -135 -240 -144 -385 l-7 -94 837 0 c636 1 839 -2 842 -11 3
-6 6 -643 7 -1415 1 -772 6 -1419 10 -1438 24 -109 107 -252 192 -331 86 -80
226 -149 334 -164 25 -3 77 -7 117 -8 57 -2 73 1 75 13 2 8 3 765 3 1683 -1
917 1 1667 4 1668 4 0 256 2 561 4 305 1 564 5 575 8 51 14 153 52 185 70 63
34 154 109 190 154 19 25 40 50 45 57 46 55 96 185 111 286 10 70 9 150 -1
151 -15 2 -3456 4 -3458 3z"/>
<path d="M26154 17468 c-238 -24 -453 -197 -528 -426 -28 -86 -44 -196 -36
-258 l5 -41 815 1 c448 1 825 -1 836 -2 l22 -4 1 -1366 c1 -1253 2 -1417 14
-1462 60 -235 200 -401 410 -484 93 -37 290 -65 303 -44 8 13 7 515 0 527 -4
6 -4 11 1 11 9 0 8 922 -1 945 -3 8 -2 15 2 15 8 0 7 923 -2 945 -3 8 -2 15 2
15 4 0 6 202 5 450 l-1 450 21 1 c12 0 263 2 557 3 294 2 544 6 555 9 11 3 39
10 63 16 53 15 202 89 202 102 0 5 5 9 11 9 11 0 129 112 129 124 0 4 8 15 18
26 20 22 82 141 87 171 2 10 7 24 11 30 10 16 18 96 19 174 l0 69 -1725 1
c-949 0 -1757 -3 -1796 -7z"/>
<path d="M19507 17464 c-1 -1 -24 -5 -52 -9 -62 -8 -194 -52 -217 -73 -10 -8
-18 -12 -18 -8 0 4 -28 -12 -61 -36 -65 -45 -199 -183 -199 -204 0 -7 -4 -14
-8 -16 -13 -5 -68 -126 -86 -188 -9 -30 -18 -81 -20 -113 -3 -32 -8 -62 -11
-67 -3 -5 4 -11 17 -14 56 -11 3443 2 3443 14 0 1 8 4 50 14 11 2 34 10 50 17
17 7 32 13 35 14 16 4 100 52 130 74 130 97 219 219 272 371 10 30 18 56 18
58 0 1 0 3 1 5 5 15 10 52 14 100 3 41 1 57 -8 58 -17 2 -3348 5 -3350 3z"/>
<path d="M20137 15994 c-339 -54 -593 -324 -624 -661 l-5 -63 33 0 c19 -1 468
0 999 0 856 1 1000 2 1020 10 3 1 8 2 12 1 4 0 37 9 74 20 118 37 254 121 323
203 14 15 31 35 39 43 28 28 103 169 122 230 33 108 44 212 23 220 -30 12
-1942 8 -2016 -3z"/>
<path d="M18904 14048 c8 -81 19 -134 38 -178 8 -19 16 -39 18 -45 7 -24 36
-80 43 -83 4 -2 7 -8 7 -14 0 -30 162 -200 217 -229 16 -8 30 -16 33 -19 8
-10 113 -57 151 -69 41 -13 65 -18 129 -27 45 -7 3355 -13 3376 -6 7 2 10 25
8 60 -1 31 -3 57 -4 57 -1 0 -4 14 -6 30 -3 17 -12 50 -20 74 -74 218 -244
395 -449 466 -131 45 -79 44 -1858 45 l-1688 0 5 -62z"/>
<path d="M12773 12246 c-23 -6 -45 -14 -49 -18 -4 -5 -13 -8 -21 -8 -32 0
-107 -82 -142 -155 -33 -69 -42 -114 -43 -205 -3 -258 119 -411 337 -421 21
-1 91 10 122 19 71 22 145 94 184 178 22 50 42 132 34 145 -4 5 -3 9 2 9 13 0
5 121 -13 205 -9 41 -37 105 -46 105 -5 0 -8 6 -8 14 0 22 -86 95 -138 117
-55 24 -159 31 -219 15z m177 -97 c60 -30 114 -95 124 -150 3 -13 5 -24 6 -24
15 0 18 -195 4 -237 -7 -21 -10 -38 -7 -38 4 0 2 -5 -5 -12 -7 -7 -12 -20 -12
-30 0 -10 -4 -18 -10 -18 -5 0 -10 -5 -10 -12 0 -6 -19 -28 -41 -49 -94 -87
-244 -64 -320 50 -20 29 -36 58 -37 65 0 6 -4 22 -7 36 -12 44 -12 193 0 240
34 129 116 200 230 198 28 -1 66 -9 85 -19z"/>
<path d="M19660 12250 c-47 -9 -120 -43 -145 -67 -56 -56 -99 -129 -109 -185
-2 -15 -7 -32 -11 -37 -3 -6 -5 -52 -4 -103 1 -125 3 -148 10 -148 3 0 6 -6 6
-13 0 -7 11 -37 25 -67 65 -140 188 -205 354 -186 90 10 190 81 234 166 58
114 69 288 25 415 -33 95 -99 170 -179 204 -51 23 -148 32 -206 21z m177 -106
c86 -56 133 -168 128 -310 -4 -130 -38 -215 -106 -264 -57 -41 -150 -57 -195
-34 -13 7 -24 11 -24 8 0 -16 -75 56 -97 93 -60 103 -66 300 -12 403 36 68 80
106 133 117 11 2 22 6 25 9 12 11 120 -5 148 -22z"/>
<path d="M22793 12241 c-161 -42 -256 -190 -254 -396 3 -276 163 -430 416
-401 51 5 149 42 166 62 7 8 13 37 15 64 2 48 2 48 -22 38 -13 -6 -24 -14 -24
-18 0 -7 -62 -40 -77 -41 -5 -1 -16 -5 -26 -11 -18 -9 -115 -12 -154 -4 -117
25 -185 137 -186 306 -1 158 46 261 141 306 73 34 224 23 273 -22 8 -8 20 -14
26 -14 6 0 16 -7 23 -15 7 -8 15 -15 19 -15 6 0 7 70 2 103 0 5 -31 22 -67 38
-82 37 -179 45 -271 20z"/>
<path d="M9933 12235 c-2 -6 -5 -182 -6 -392 -2 -333 0 -382 13 -385 8 -2 116
-4 240 -3 l225 0 1 42 c2 24 -3 43 -9 45 -7 3 -92 4 -189 3 l-178 0 0 142 0
143 175 0 c96 0 175 3 176 8 1 4 2 23 2 42 1 27 -2 35 -16 34 -9 -1 -17 1 -17
5 0 5 -64 6 -80 1 -14 -5 -82 -2 -87 3 -3 4 -14 2 -24 -3 -11 -7 -20 -7 -24 0
-3 5 -15 6 -28 1 -12 -4 -33 -5 -47 -1 -25 6 -25 7 -25 120 l0 114 183 0 184
0 -5 23 c-2 13 0 23 6 23 5 0 5 6 -2 13 -6 8 -8 17 -4 20 8 9 11 9 -241 11
-143 1 -220 -3 -223 -9z"/>
<path d="M10681 12240 c-4 -3 -7 -180 -6 -395 l0 -389 48 -1 c46 -1 47 -1 48
29 0 17 1 171 1 341 0 181 4 302 9 290 4 -11 31 -85 59 -165 28 -80 55 -154
60 -165 5 -11 19 -51 31 -90 12 -38 25 -74 30 -79 4 -5 28 -9 53 -10 52 -1 51
-3 95 124 80 236 136 390 141 390 3 0 5 -146 5 -325 0 -180 2 -330 5 -335 5
-8 47 -8 90 -1 3 1 5 177 5 391 0 339 -2 390 -15 391 -46 4 -117 4 -126 1 -12
-3 -20 -22 -79 -192 -20 -58 -39 -112 -42 -120 -3 -8 -7 -19 -9 -25 -1 -5 -17
-51 -36 -102 -30 -87 -39 -99 -44 -70 -2 7 -21 64 -44 127 -23 63 -48 135 -56
160 -8 25 -19 54 -23 65 -16 37 -33 84 -34 92 0 4 -6 21 -12 37 -12 29 -15 30
-80 30 -37 1 -70 -1 -74 -4z"/>
<path d="M11760 12225 c-4 -11 -4 -24 1 -29 4 -5 4 -17 -2 -28 -7 -12 -6 -18
1 -18 7 0 8 -6 2 -17 -6 -9 -6 -29 -2 -45 5 -15 6 -28 2 -28 -4 0 -7 -25 -7
-55 0 -30 3 -55 6 -55 4 0 3 -16 -1 -35 -4 -20 -4 -38 1 -41 5 -3 5 -13 -1
-25 -8 -13 -7 -19 0 -19 6 0 8 -5 4 -12 -10 -15 -11 -98 -2 -124 4 -12 4 -25
1 -28 -8 -8 -7 -151 1 -165 4 -6 2 -11 -4 -11 -7 0 -8 -6 -1 -19 8 -14 21 -18
53 -17 l43 2 3 157 3 157 79 1 c118 2 173 13 217 44 95 67 106 272 20 363 -47
48 -115 65 -276 66 -125 1 -134 0 -141 -19z m293 -84 c52 -21 72 -55 76 -129
3 -57 -23 -113 -61 -133 -33 -18 -156 -30 -165 -16 -3 4 -11 3 -19 -4 -11 -9
-15 -8 -18 2 -10 32 -13 70 -5 75 5 2 4 16 -1 29 -6 15 -6 27 0 30 5 3 6 13 3
22 -6 15 -7 72 -3 91 1 4 2 16 1 27 -2 20 3 21 81 19 46 -1 96 -6 111 -13z"/>
<path d="M13285 12220 c2 -14 13 -64 25 -110 12 -47 24 -94 25 -105 1 -11 3
-20 5 -20 1 0 3 -9 4 -20 2 -11 10 -49 19 -85 22 -90 62 -261 83 -350 l17 -75
56 1 c75 2 81 3 80 12 -1 4 0 9 1 12 1 3 3 14 4 25 2 11 9 47 17 80 7 33 14
65 15 70 1 6 3 12 4 15 1 3 3 12 5 20 8 39 15 69 26 110 6 25 13 56 15 70 3
14 7 33 10 42 3 10 7 28 10 40 7 38 12 61 23 96 11 37 11 36 11 60 1 16 1 16
11 -1 6 -10 13 -30 15 -45 3 -15 11 -50 18 -79 8 -28 11 -54 8 -57 -2 -3 0
-11 5 -18 6 -7 13 -29 17 -48 6 -35 12 -63 20 -97 9 -38 25 -109 30 -133 9
-45 15 -71 20 -88 3 -9 7 -30 10 -46 7 -39 10 -41 77 -41 63 -1 60 -3 75 65
10 47 11 50 14 53 1 1 3 11 5 22 1 11 8 43 15 70 6 28 13 57 15 65 2 8 17 74
35 145 18 72 34 139 36 150 2 11 6 32 10 47 3 15 4 29 3 30 -1 2 3 13 10 26 6
12 14 44 17 70 l5 48 -48 -1 -48 -1 -18 -75 c-10 -41 -20 -85 -23 -99 -3 -14
-9 -41 -14 -60 -5 -19 -11 -46 -14 -60 -2 -14 -9 -45 -15 -70 -11 -44 -15 -60
-27 -110 -3 -14 -6 -29 -8 -35 -1 -5 -8 -36 -15 -67 -11 -54 -30 -86 -32 -56
-1 17 -3 26 -28 131 -11 49 -23 102 -26 119 -3 17 -8 34 -10 38 -2 3 -6 17 -9
31 -7 38 -69 304 -72 307 -1 2 -25 4 -54 6 -47 2 -53 0 -62 -23 -8 -22 -21
-78 -33 -139 -2 -9 -4 -17 -5 -17 -2 0 -6 -17 -15 -60 -7 -32 -9 -37 -18 -75
-4 -14 -9 -36 -11 -50 -3 -14 -16 -72 -30 -130 -14 -58 -28 -115 -31 -127 -6
-27 -20 -30 -21 -5 -1 16 -43 203 -64 282 -9 35 -44 183 -54 230 -3 14 -10 45
-16 70 l-11 45 -48 0 c-47 0 -49 -1 -46 -25z"/>
<path d="M14407 12238 c-8 -5 -12 -118 -12 -395 l0 -388 238 0 c130 0 237 2
238 5 7 42 2 80 -11 81 -8 1 -89 2 -180 3 -91 1 -169 4 -175 8 -8 5 -13 224
-6 271 1 4 80 7 176 7 l175 0 0 44 c0 29 -5 46 -15 49 -8 4 -17 2 -20 -3 -3
-6 -15 -6 -29 0 -13 5 -26 6 -30 3 -8 -8 -96 -9 -96 -1 0 4 -13 3 -30 -2 -17
-5 -30 -5 -30 0 0 5 -13 5 -30 0 -16 -5 -30 -5 -30 0 0 4 -9 6 -20 3 -11 -3
-20 -1 -21 3 -4 44 -3 217 1 222 3 4 86 7 185 7 l179 0 1 38 c1 21 -3 41 -9
45 -14 8 -435 9 -449 0z"/>
<path d="M15140 11848 l1 -397 49 2 c46 1 50 3 51 26 0 14 1 90 1 168 l0 143
81 -3 c45 -2 92 -9 104 -15 40 -22 70 -73 167 -282 16 -34 19 -36 66 -36 31 0
50 5 50 11 0 11 -21 56 -99 213 -20 41 -52 90 -72 111 l-36 36 38 24 c49 31
74 87 73 166 -1 111 -24 158 -101 202 -31 18 -106 26 -245 27 l-128 1 0 -397z
m324 278 c33 -24 41 -44 49 -111 3 -29 -16 -84 -36 -102 -31 -29 -60 -36 -149
-38 -63 -1 -79 2 -82 14 -6 18 -6 253 -1 262 2 3 45 4 94 3 81 -1 94 -4 125
-28z"/>
<path d="M15954 12241 c-2 -2 -4 -180 -4 -395 l0 -391 233 1 c127 1 236 2 240
3 5 0 7 20 5 44 l-3 42 -185 0 -185 0 -3 143 -3 142 176 0 c109 0 175 4 176
10 1 6 2 21 2 35 0 40 -2 47 -13 40 -5 -3 -10 -1 -10 5 0 6 -4 9 -8 6 -10 -6
-83 -8 -134 -4 -21 2 -38 1 -38 -2 0 -3 -18 -5 -40 -5 -22 0 -40 2 -40 5 0 3
-15 5 -32 5 l-33 0 0 115 0 114 181 0 181 0 -1 45 -1 45 -228 0 c-126 1 -231
-1 -233 -3z"/>
<path d="M16702 12240 c-10 -7 -10 -774 0 -781 11 -7 312 -4 325 4 5 3 24 9
42 12 46 8 110 42 149 79 69 64 100 166 97 316 -2 95 -13 148 -44 205 -44 82
-130 138 -243 156 -67 11 -314 18 -326 9z m347 -105 c107 -35 163 -135 163
-290 -1 -152 -58 -249 -166 -285 -22 -7 -87 -14 -145 -16 l-106 -3 0 297 c0
163 4 302 7 308 11 17 188 9 247 -11z"/>
<path d="M18488 12239 c-17 -11 -15 -79 2 -83 8 -2 68 -3 133 -2 111 1 117 0
118 -19 0 -11 1 -168 2 -350 l2 -330 49 0 50 0 0 350 0 350 132 -1 133 -1 -2
38 c-2 21 -6 41 -10 46 -9 9 -594 11 -609 2z"/>
<path d="M20762 12240 c-5 -4 -8 -725 -3 -775 1 -7 81 -11 238 -10 l237 0 1
37 c1 21 -1 41 -4 45 -3 5 -89 8 -190 8 l-184 0 1 130 c0 72 0 136 1 143 1 9
43 12 176 12 l175 0 0 44 c0 39 -3 44 -25 48 -13 3 -27 3 -29 0 -8 -7 -96 -8
-96 0 0 4 -13 3 -30 -2 -16 -5 -30 -6 -30 -2 0 4 -19 6 -42 4 -55 -4 -90 -3
-96 2 -4 4 -5 113 -3 196 l1 35 184 -1 184 -1 -1 38 c-1 21 -6 41 -10 45 -9 9
-445 12 -455 4z"/>
<path d="M21780 12228 c0 -10 7 -21 15 -24 8 -4 15 -11 15 -16 0 -6 40 -74 88
-152 49 -77 92 -147 96 -154 5 -8 2 -21 -6 -30 -8 -9 -38 -55 -67 -102 -29
-47 -81 -130 -116 -185 -35 -55 -64 -102 -65 -105 0 -3 23 -5 51 -6 l50 -1 55
84 c30 47 60 95 66 109 6 13 15 24 20 24 4 0 8 5 8 10 0 6 14 32 32 59 l32 48
21 -31 c11 -17 56 -88 99 -158 43 -71 83 -131 89 -135 17 -11 96 -12 103 -2 3
5 0 9 -5 9 -6 0 -11 4 -11 9 0 8 -127 220 -147 246 -5 6 -26 39 -47 74 l-39
64 18 31 c10 17 37 60 60 96 106 163 154 243 150 250 -4 6 -94 5 -99 -2 -2 -2
-20 -30 -42 -63 -21 -33 -41 -62 -44 -65 -3 -3 -16 -25 -30 -50 -13 -25 -28
-49 -32 -55 -5 -5 -15 -19 -23 -30 -7 -11 -15 -18 -18 -15 -10 12 -147 231
-147 236 0 3 -9 14 -20 26 -27 29 -110 33 -110 6z"/>
<path d="M23400 12235 c-4 -5 -7 -183 -6 -395 l1 -385 238 0 237 0 0 42 c0 27
-5 43 -12 44 -7 1 -87 3 -178 4 -91 1 -170 3 -176 4 -7 1 -10 50 -10 141 l0
140 175 2 176 3 1 38 c0 21 -3 40 -8 43 -12 8 -92 9 -103 2 -6 -3 -19 -2 -30
2 -11 4 -30 4 -41 -1 -12 -4 -24 -5 -27 -2 -8 7 -77 10 -77 2 0 -4 -15 -3 -32
0 l-33 7 -1 112 c-1 97 1 112 15 113 9 1 90 1 181 2 158 1 165 2 171 21 3 12
3 32 -1 46 l-6 24 -223 1 c-137 0 -226 -4 -231 -10z"/>
<path d="M24155 12242 c-20 -3 -20 -10 -19 -388 1 -211 4 -388 8 -392 4 -4
109 -7 232 -7 233 0 234 0 224 40 -2 6 -3 17 -2 27 1 22 -12 24 -195 23 l-163
0 -1 25 c-1 14 -1 39 -1 55 1 17 1 39 2 50 0 11 0 82 0 157 -1 76 2 142 5 148
3 5 3 10 -2 10 -6 0 -7 67 -2 135 3 30 -5 115 -10 116 -20 3 -59 4 -76 1z"/>
<path d="M25247 12242 c-16 -3 -17 -34 -15 -395 l3 -392 48 -1 47 0 1 55 c0
66 0 675 -1 711 0 22 -5 25 -33 25 -18 0 -41 -1 -50 -3z"/>
<path d="M25648 12242 c-13 -3 -15 -47 -14 -395 l1 -392 45 0 45 0 5 325 5
325 162 -325 162 -325 67 0 68 0 1 385 c0 212 -1 390 -2 396 -4 13 -83 10 -92
-4 -3 -5 -6 -150 -6 -320 0 -171 -2 -309 -5 -306 -3 2 -77 147 -165 322 l-160
317 -51 0 c-27 0 -57 -1 -66 -3z"/>
<path d="M26937 12242 c-16 -3 -17 -27 -15 -395 l3 -391 43 -2 c23 -1 45 3 48
7 8 13 7 769 -1 777 -7 7 -51 9 -78 4z"/>
<path d="M27220 12230 c-4 -8 -4 -24 0 -35 4 -11 5 -25 3 -31 -3 -8 36 -11
128 -10 l133 0 -1 -347 c0 -191 3 -348 6 -348 31 -7 91 -3 93 5 2 6 3 164 3
351 l-1 340 128 -1 c70 -1 128 -1 129 0 0 1 2 20 5 44 4 30 1 42 -8 43 -7 1
-147 2 -311 3 -257 1 -300 -1 -307 -14z"/>
</g>
</svg>
