<?xml version="1.0" encoding="UTF-8"?>
<svg id="Layer_1" data-name="Layer 1" xmlns="http://www.w3.org/2000/svg" xmlns:xlink="http://www.w3.org/1999/xlink" viewBox="0 0 741.61 214">
  <defs>
    <style>
      .cls-1 {
        fill: url(#linear-gradient-2);
      }

      .cls-2 {
        letter-spacing: .1em;
      }

      .cls-3 {
        letter-spacing: .1em;
      }

      .cls-4 {
        letter-spacing: .06em;
      }

      .cls-5 {
        letter-spacing: .02em;
      }

      .cls-6 {
        letter-spacing: .03em;
      }

      .cls-7, .cls-8 {
        fill: #1b1464;
      }

      .cls-8 {
        font-family: AzonixRegular, Azonix;
        font-size: 27.04px;
      }

      .cls-9 {
        letter-spacing: .01em;
      }

      .cls-10 {
        letter-spacing: .1em;
      }

      .cls-11 {
        fill: url(#linear-gradient-3);
      }

      .cls-12 {
        fill: url(#linear-gradient);
      }
    </style>
    <linearGradient id="linear-gradient" x1="470.64" y1="50.51" x2="571.32" y2="50.51" gradientUnits="userSpaceOnUse">
      <stop offset="0" stop-color="#fff"/>
      <stop offset=".09" stop-color="#ffecd8"/>
      <stop offset=".21" stop-color="#ffd4a7"/>
      <stop offset=".33" stop-color="#ffc07d"/>
      <stop offset=".46" stop-color="#ffb05a"/>
      <stop offset=".59" stop-color="#ffa340"/>
      <stop offset=".72" stop-color="#ff9a2d"/>
      <stop offset=".86" stop-color="#ff9421"/>
      <stop offset="1" stop-color="#ff931e"/>
    </linearGradient>
    <linearGradient id="linear-gradient-2" x1="472.16" y1="134.42" x2="572.85" y2="134.42" xlink:href="#linear-gradient"/>
    <linearGradient id="linear-gradient-3" x1="487.42" y1="87.13" x2="553.78" y2="87.13" xlink:href="#linear-gradient"/>
  </defs>
  <g>
    <path class="cls-7" d="M260.09,68.65v9.51h65.83v.74c0,9.69-7.85,17.54-17.54,17.54h-48.29v19.31c0,5.15,4.21,9.36,9.36,9.36h56.47c10.1,0,18.29,8.19,18.29,18.29h0s-74.76,0-74.76,0c-15.13,0-27.5-12.38-27.5-27.5v-47.25c0-15.21,12.44-27.65,27.65-27.65h74.61v2.27c0,8.85-7.17,16.02-16.02,16.02h-58.74c-5.15,0-9.36,4.21-9.36,9.36Z"/>
    <path class="cls-7" d="M455.73,41.15v1.51c0,9.27-7.51,16.78-16.78,16.78h-25.2v84.12h-2.27c-8.85,0-16.02-7.17-16.02-16.02V59.43h-41.99v-1.51c0-9.27,7.51-16.78,16.78-16.78h85.48Z"/>
    <path class="cls-7" d="M594.8,143.41V58.54c0-9.69,7.85-17.54,17.54-17.54h.74V126.62c0,9.27-7.51,16.78-16.78,16.78h-1.5Z"/>
    <path class="cls-7" d="M741.61,41.15v1.51c0,9.27-7.51,16.78-16.78,16.78h-25.2v84.12h-1.51c-9.27,0-16.78-7.51-16.78-16.78V59.43h-41.99v-2.27c0-8.85,7.17-16.02,16.02-16.02h86.24Z"/>
  </g>
  <path class="cls-12" d="M553.02,59.67h-82.38c0-10.11,8.2-18.31,18.31-18.31h82.38c0,10.11-8.2,18.31-18.31,18.31Z"/>
  <path class="cls-1" d="M472.16,125.27h82.38c10.1,0,18.31,8.2,18.31,18.31h-82.38c-10.1,0-18.31-8.2-18.31-18.31h0Z"/>
  <path class="cls-11" d="M505.72,77.97h48.06c0,10.1-8.2,18.31-18.31,18.31h-48.06c0-10.1,8.2-18.31,18.31-18.31Z"/>
  <text class="cls-8" transform="translate(245.44 191.64) scale(.94 1)"><tspan class="cls-3" x="0" y="0">EM</tspan><tspan class="cls-4" x="48.66" y="0">P</tspan><tspan class="cls-5" x="69.91" y="0">O</tspan><tspan class="cls-4" x="90.81" y="0">W</tspan><tspan class="cls-2" x="118.77" y="0">ERED </tspan><tspan class="cls-6" x="230.07" y="0">T</tspan><tspan class="cls-10" x="252.62" y="0">O E</tspan><tspan class="cls-9" x="315.8" y="0">X</tspan><tspan class="cls-10" x="336.4" y="0">CEL IN IT</tspan></text>
  <path class="cls-7" d="M110.77,214h-7.73c-.28-.06-.56-.16-.83-.16-2.79-.04-5.57-.34-8.34-.66-8.47-.97-16.67-3.02-24.62-6.1-.38-.15-.92-.21-.77-.83,.15-.6,.64-.43,1.06-.39,.11,.01,.21,.04,.32,.06,11.65,2.28,23.4,2.95,35.23,2.02,.91-.07,1.81-.19,2.75-.29-.18-.48-.54-.5-.82-.61-10.45-4.16-19.55-10.38-27.64-18.13-.68-.65-1.36-.92-2.29-.89-6.59,.17-13.16,.02-19.69-1.02-10.85-1.73-21.01-5.25-30.07-11.6-3.71-2.6-7.1-5.56-9.69-9.33-.24-.35-.7-.79-.19-1.22,.45-.39,.79,.1,1.1,.35,3.46,2.77,7.28,4.93,11.35,6.66,12.54,5.31,25.71,7.13,39.23,6.92,.24,0,.55,.08,.68-.18,.16-.32-.15-.52-.31-.74-1.22-1.68-2.48-3.33-3.66-5.04-4.72-6.86-8.62-14.18-11.78-21.88-.36-.87-.82-1.29-1.81-1.29-3.62,0-7.21-.35-10.79-.87-9.04-1.32-17.68-3.84-25.48-8.78-5.69-3.61-10.36-8.2-13.39-14.32-1.33-2.69-2.08-5.55-2.6-8.48v-4.08c.71,.07,.91,.58,1.06,1.17,.39,1.54,.99,2.98,1.77,4.36,3.18,5.62,7.96,9.5,13.57,12.44,9.95,5.22,20.72,6.75,31.78,6.92,.98,.02,1.16-.36,.89-1.24-.8-2.64-1.48-5.31-2.09-7.99-1.54-6.7-2.62-13.48-3.24-20.33-.16-1.73-.3-1.83-2-1.95-2.97-.2-5.9-.65-8.8-1.32-7.48-1.71-14.37-4.65-19.95-10.09-5.22-5.1-8.05-11.24-7.62-18.66,.32-5.52,2.11-10.63,4.58-15.53,.06-.13,.15-.24,.24-.35,.14-.19,.33-.28,.56-.2,.28,.09,.4,.3,.35,.58-.06,.32-.13,.63-.21,.94-.93,3.62-1.16,7.31-.6,10.97,1.2,7.91,5.85,13.34,12.76,17,5.88,3.12,12.27,4.19,18.83,4.53,.81,.04,1.08-.35,1.07-1.1-.02-1.82,.08-3.65,.14-5.47,.22-6.85,1.1-13.61,2.51-20.31,.29-1.4,.25-1.42-1.15-1.58-4.05-.46-7.97-1.41-11.55-3.43-4.9-2.76-8.04-6.75-8.35-12.54-.19-3.68,.77-7.17,2.31-10.49,3.27-7.04,8.45-12.54,14.38-17.38,8.77-7.16,18.63-12.39,29.26-16.18C82.11,1.75,94.03-.71,106.46,.18c4.32,.31,8.48,1.32,12.34,3.36,6.48,3.42,9.43,9.06,8.53,16.31-.31,2.51-1.09,4.89-2.15,7.17-.33,.7-.25,1.08,.53,1.38,7.74,2.98,15.09,6.73,22.06,11.21,.66,.43,.99,.3,1.3-.39,1.03-2.25,1.94-4.54,2.56-6.94,2.75-10.71-1.04-20.08-10.43-25.81-1.13-.69-2.34-1.23-3.57-1.74-.29-.12-.68-.23-.54-.66,.13-.41,.51-.3,.83-.26,.21,.03,.42,.08,.63,.13,6.05,1.37,11.48,4,16.13,8.1,6,5.29,9.16,11.9,8.88,19.98-.18,5.22-1.58,10.16-3.73,14.89-.36,.79-.3,1.24,.39,1.81,7.53,6.16,14.28,13.09,20.32,20.72,.8,1,.9,.99,1.49-.15,2.96-5.66,5.14-11.59,5.67-18,.47-5.59,.03-11.08-2.42-16.26-.17-.36-.56-.79-.11-1.16,.5-.42,.86,.06,1.19,.35,1.69,1.51,3.17,3.19,4.45,5.07,4.68,6.85,5.69,14.45,4.66,22.48-.85,6.57-2.98,12.73-5.99,18.6-.33,.65-.48,1.18-.05,1.88,4.83,7.91,8.79,16.22,11.62,25.06,.08,.25,.06,.65,.43,.65,.28,0,.34-.34,.45-.55,4.49-8.63,7.26-17.72,7.37-27.52,0-.53,.05-1.07,.11-1.6,.03-.27,.21-.45,.5-.48,.31-.04,.46,.15,.56,.4,.1,.27,.19,.54,.27,.81,1.54,5.44,1.85,10.98,1.28,16.59-.85,8.41-3.44,16.28-7.37,23.73-.32,.6-.4,1.17-.29,1.85,.71,4.31,1.08,8.66,1.03,13.03-.03,3.07-.18,6.15-.42,9.21-.27,3.46-.71,6.9-1.68,10.26-.12,.43-.18,.96-.86,.88-.7-.09-.69-.58-.69-1.11,.02-3.29,.05-6.58-.16-9.87-.3-4.83-.91-9.61-1.84-14.35-.06-.29,0-.74-.38-.81-.37-.07-.5,.35-.68,.6-6.44,8.97-14.28,16.56-22.96,23.32-.67,.52-.85,.98-.6,1.81,2.27,7.43,4.14,14.96,5.52,22.61,.19,1.07,.32,1.11,1.18,.42,5.42-4.36,10.44-9.14,14.93-14.46,.16-.19,.33-.38,.5-.56,.29-.31,.61-.35,.95-.09,.32,.24,.32,.54,.15,.86-.24,.44-.48,.88-.74,1.3-6.68,10.72-15.16,19.8-25.17,27.46-16.9,12.92-35.95,20.29-57.19,21.95-1.49,.12-3.01-.03-4.48,.35ZM95.11,3.6c-2.78-.09-5.66,.15-8.53,.6-9.9,1.54-19.17,4.91-27.92,9.73-6.81,3.75-13.09,8.2-18.28,14.06-2.9,3.27-5.28,6.85-6.51,11.11-1.65,5.73,.02,10.97,4.5,13.97,2.55,1.71,5.42,2.55,8.41,3.03,1.64,.26,1.79,.2,2.34-1.38,2.59-7.35,5.88-14.36,10.25-20.84,.3-.45,.54-1.35,1.31-.9,.71,.42,.04,1.04-.16,1.49-3.04,6.58-5.35,13.42-7.11,20.44-.42,1.68-.39,1.73,1.29,1.66,5.59-.26,11.09-1.15,16.5-2.59,.8-.22,1.01-.6,.89-1.38-.79-4.84-1.29-9.71-1.61-14.6-.1-1.53-.07-3.07-.09-4.61,0-.45,.22-.75,.69-.81,.49-.06,.59,.3,.68,.66,.07,.28,.14,.56,.2,.83,1.26,5.69,2.74,11.33,4.3,16.95,.25,.91,.55,1.23,1.56,.86,5.69-2.09,11.16-4.63,16.35-7.78,1.21-.74,1.22-.79,.23-1.75-4.62-4.48-9.35-8.85-14.31-12.96-.27-.23-.82-.41-.55-.89,.28-.5,.78-.41,1.23-.18,.8,.41,1.59,.81,2.38,1.24,5.45,2.96,10.54,6.48,15.45,10.26,.55,.42,1.01,.68,1.7,.16,4.13-3.12,7.95-6.55,11.05-10.72,.78-1.06,.75-1.17-.49-1.6-5.07-1.76-10.24-3.21-15.5-4.29-3.01-.62-6.04-1.16-9.09-1.54-.44-.05-1.19,.04-1.1-.7,.08-.66,.77-.5,1.24-.49,.57,0,1.14,.1,1.71,.11,4.62,.03,9.21,.53,13.77,1.22,3.79,.57,7.53,1.38,11.23,2.34,.51,.13,1.08,.38,1.39-.32,1.7-3.84,2.69-7.74,.72-11.78-1.57-3.22-4.24-5.25-7.48-6.59-4.01-1.66-8.22-2.12-12.64-2.01Zm32.16,162.57c.24-.09,.55-.19,.84-.31,12.49-4.99,24.42-11.07,35.6-18.58q1.34-.9,.7-2.38c-3.58-8.28-7.52-16.38-11.79-24.32-.44-.82-.8-.87-1.55-.38-11.9,7.87-24.6,14.15-38,19.01-1.21,.44-1.26,.53-.65,1.68,1.93,3.59,3.84,7.19,5.82,10.76,2.57,4.63,5.25,9.19,8.05,13.68,.22,.35,.37,.8,.97,.84Zm-21.06-39.01c.29-.1,.67-.2,1.04-.34,4-1.55,7.97-3.17,11.88-4.95,8.7-3.97,17.04-8.59,25.03-13.85,.72-.48,.87-.89,.38-1.63-.96-1.46-1.85-2.98-2.77-4.46-4.16-6.68-8.59-13.17-13.16-19.58-.64-.9-1.14-.92-1.98-.31-1.12,.82-2.33,1.53-3.52,2.26-9.13,5.63-18.78,10.19-28.85,13.86-1.37,.5-1.39,.53-.81,1.92,1.9,4.48,3.76,8.97,5.73,13.41,1.9,4.28,3.93,8.5,5.91,12.74,.21,.44,.37,.97,1.12,.92Zm-26.58,50.94c.93-.1,1.78-.17,2.63-.27,12.43-1.53,24.54-4.45,36.39-8.5q1.27-.43,.51-1.56c-5.26-7.77-10.09-15.79-14.55-24.03-.79-1.45-.78-1.46-2.4-.99-12.88,3.79-26.01,6.17-39.43,6.86-1.07,.06-1.14,.16-.68,1.15,1.4,3.1,2.93,6.13,4.56,9.11,3.37,6.12,7.2,11.94,11.51,17.44,.4,.51,.82,.9,1.45,.79Zm-21.75-40.39c1.8-.14,3.59-.26,5.37-.44,11.1-1.12,21.98-3.38,32.65-6.61,1.69-.51,1.73-.58,.95-2.21-4.06-8.46-7.72-17.08-11.02-25.85q-.57-1.5-2.08-1.07c-10.61,3-21.4,4.87-32.44,5.15-1.2,.03-1.33,.2-1.17,1.44,.38,3.05,.85,6.09,1.41,9.12,1.23,6.58,2.91,13.05,5.01,19.41,.22,.67,.5,1.21,1.32,1.05ZM155.85,54.53c-.33,.02-.45,.31-.6,.54-5.4,7.99-12.15,14.69-19.73,20.58-.87,.68-.84,1.19-.21,2.01,5.84,7.56,11.17,15.48,16.08,23.67,.53,.88,.92,.94,1.72,.32,3.38-2.64,6.67-5.39,9.82-8.31,4.91-4.56,9.41-9.48,13.38-14.89,.44-.6,.4-1.04-.02-1.62-5.84-7.95-12.41-15.24-19.72-21.86-.21-.19-.4-.41-.73-.44Zm40.47,61.5c-.07-.24-.15-.58-.26-.92-2.85-8.77-6.62-17.13-11.19-25.14-.49-.87-.78-.66-1.25,0-6.59,9.21-14.63,17-23.6,23.85-.9,.69-.99,1.21-.48,2.19,4.15,7.97,7.79,16.17,10.95,24.58,.53,1.41,.61,1.44,1.81,.51,3.39-2.63,6.67-5.4,9.81-8.33,5.08-4.75,9.71-9.9,13.77-15.56,.23-.32,.47-.64,.44-1.18Zm-19.4,64.42c-.03-.14-.06-.28-.09-.42-2.03-7.42-4.44-14.72-7.1-21.94-.34-.93-.77-.78-1.43-.33-10.59,7.23-21.89,13.11-33.81,17.83-1.15,.46-1.18,.53-.46,1.59,4.38,6.41,9.06,12.6,14.08,18.53,.77,.91,1.37,1.06,2.44,.56,3.95-1.85,7.87-3.76,11.69-5.88,4.82-2.68,9.46-5.64,13.93-8.87,.36-.26,.85-.47,.76-1.06Zm-60.84,26.12c.25-.03,.5-.06,.74-.1,9.2-1.55,18.14-4.04,26.84-7.37,.93-.35,.77-.67,.19-1.23-5.96-5.79-11.38-12.06-16.43-18.65-.45-.58-.87-.7-1.55-.47-12.26,4.18-24.83,7-37.7,8.45-.26,.03-.64-.07-.72,.3-.06,.28,.24,.41,.41,.58,1.31,1.21,2.6,2.45,3.95,3.63,6.8,5.95,14.31,10.81,22.64,14.36,.52,.22,1.03,.5,1.62,.53Zm-27.57-120.53c.2-.06,.44-.13,.68-.22,10.29-3.86,20.04-8.76,29.22-14.8,.79-.52,.86-.93,.26-1.68-4.94-6.17-10.13-12.13-15.47-17.95-.46-.5-.84-.63-1.47-.24-6.6,4.15-13.62,7.43-21,9.92-1.04,.35-1.22,.79-.89,1.79,1.63,5.04,3.32,10.05,5.1,15.04,.86,2.42,1.76,4.84,2.65,7.25,.15,.41,.23,.96,.93,.89Zm-39.52,4.61c.06,.89,.13,1.78,.18,2.67,.03,.56,.32,.87,.89,.84,.78-.03,1.57-.1,2.35-.16,9.28-.65,18.34-2.45,27.26-5.03,.94-.27,1.19-.63,.87-1.59-2.44-7.52-4.51-15.14-6.22-22.86-.31-1.41-.32-1.42-1.69-1.09-6.66,1.6-13.39,2.64-20.25,2.7-.99,0-1.36,.39-1.51,1.35-1.21,7.68-1.74,15.4-1.87,23.17Zm96.06-44.64c.02-.45-.27-.58-.49-.74-.96-.69-1.92-1.38-2.89-2.04-5.87-3.98-11.98-7.54-18.41-10.54-.56-.26-1-.44-1.46,.22-3.69,5.31-8.3,9.72-13.42,13.61-.71,.54-.71,.9-.06,1.49,2.11,1.93,4.21,3.88,6.25,5.87,3.59,3.49,6.97,7.18,10.29,10.93,.55,.63,1.02,.87,1.79,.26,6.75-5.36,12.93-11.28,17.94-18.34,.18-.26,.35-.53,.48-.74Z"/>
</svg>